<?xml version="1.0" encoding="utf-8"?>
<!-- Generator: Adobe Illustrator 26.2.1, SVG Export Plug-In . SVG Version: 6.00 Build 0)  -->
<svg version="1.1" id="Layer_1" xmlns="http://www.w3.org/2000/svg" xmlns:xlink="http://www.w3.org/1999/xlink" x="0px" y="0px"
	 viewBox="0 0 1474.6 743.8" style="enable-background:new 0 0 1474.6 743.8;" xml:space="preserve">
<style type="text/css">
	.st0{fill:#454545;}
	.st1{fill:#FF5C52;}
	.st2{fill:#FFFFFF;stroke:#FFFFFF;stroke-width:10;stroke-miterlimit:10;}
</style>
<path class="st0" d="M747.9,696.1h630c53.3-0.1,96.6-43.3,96.7-96.7V144.6c-0.1-53.3-43.3-96.6-96.7-96.7H896.8l-6.6,28.9h487.6
	c37.5,0.1,67.8,30.5,67.8,68v454.4c0,37.5-30.3,67.9-67.8,68H754.5L747.9,696.1z"/>
<path class="st1" d="M82.3,743.8h654.5L907.9,0H82.3C36.9,0,0,36.9,0,82.3v579.2C0,707,36.9,743.8,82.3,743.8z"/>
<g>
	<polygon class="st0" points="1124.5,499.6 930.3,499.6 930.3,244.4 1119.5,244.4 1119.5,287.6 981.9,287.6 981.9,344.2 
		1109.9,344.2 1109.9,387.2 981.9,387.2 981.9,456.6 1124.5,456.6 	"/>
	<path class="st0" d="M1335.4,499.6h-48.5v-94.4c0-19.9-1-33-3.1-38.7c-1.8-5.6-5.4-10.4-10.2-13.7c-5-3.4-11-5.1-17-4.9
		c-8.1-0.1-16.1,2.3-22.7,7c-6.6,4.4-11.5,10.9-13.9,18.4c-2.5,7.6-3.7,21.9-3.7,42.4v83.8h-48.9V314.7h45.5v27.2
		c16.2-20.9,36.5-31.3,60.8-31.3c10.1-0.2,20.2,1.8,29.5,5.7c9,3.9,15.8,8.8,20.3,15c4.6,6.2,7.8,13.2,9.4,20.7
		c1.8,7.6,2.7,18.6,2.7,32.8v114.8L1335.4,499.6L1335.4,499.6z"/>
</g>
<path class="st2" d="M422.2,221.9V102.2h-45.1v119.7h-212v248.4H208V441h169.4v200.9h45.1V441h169.4v29.3h42.6V221.9H422.2z
	 M377.1,400.2H207.8V262.4h169.4L377.1,400.2z M591.6,400.2H422.2V262.4h169.4V400.2z"/>
</svg>
