<?xml version="1.0" encoding="utf-8"?>
<!-- Generator: Adobe Illustrator 26.2.1, SVG Export Plug-In . SVG Version: 6.00 Build 0)  -->
<svg version="1.1" id="Layer_1" xmlns="http://www.w3.org/2000/svg" xmlns:xlink="http://www.w3.org/1999/xlink" x="0px" y="0px"
	 viewBox="0 0 1474.6 743.8" style="enable-background:new 0 0 1474.6 743.8;" xml:space="preserve">
<style type="text/css">
	.st0{fill:#4D87EC;}
	.st1{fill:#454545;}
	.st2{fill:#FFFFFF;}
</style>
<path class="st0" d="M1392.2,0H737.7l-171,743.8h825.5c45.5,0,82.3-36.9,82.3-82.3V82.3C1474.6,36.9,1437.7,0,1392.2,0z"/>
<path class="st1" d="M726.6,47.7h-630C43.3,47.8,0.1,91,0,144.4v454.9c0.1,53.3,43.3,96.6,96.7,96.7h481.1l6.6-28.9H96.7
	c-37.5-0.1-67.8-30.5-67.8-68V144.6c0-37.5,30.3-67.9,67.8-68h623.4L726.6,47.7z"/>
<path class="st1" d="M348.8,258.6v-90.3h-34v90.3h-160V446h32.4v-22.1H315v151.6h34V423.8h127.8v22.1H509V258.6H348.8z M314.8,393.1
	H187v-104h127.8V393.1z M476.6,393.1H348.8v-104h127.8L476.6,393.1z"/>
<g>
	<polygon class="st2" points="1061,529.3 821.6,529.3 821.6,214.5 1055,214.5 1055,267.8 885.2,267.8 885.2,337.6 1043.1,337.6 
		1043.1,390.6 885.2,390.6 885.2,476.3 1061,476.3 	"/>
	<path class="st2" d="M1321.3,529.3h-59.8V412.9c0-24.5-1.2-40.7-3.8-47.7c-2.2-6.9-6.7-12.8-12.6-16.9c-6.2-4.2-13.6-6.3-21-6
		c-10-0.1-19.9,2.8-28,8.6c-8.1,5.4-14.2,13.4-17.1,22.7c-3.1,9.4-4.6,27-4.6,52.3v103.4H1114v-228h56.1v33.6
		c20-25.8,45-38.6,75-38.6c12.5-0.2,24.9,2.2,36.4,7c11.1,4.8,19.5,10.9,25,18.5c5.7,7.6,9.6,16.3,11.6,25.5
		c2.2,9.4,3.3,22.9,3.3,40.5v141.6H1321.3z"/>
</g>
</svg>
