<?xml version="1.0" encoding="utf-8"?>
<!-- Generator: Adobe Illustrator 26.2.1, SVG Export Plug-In . SVG Version: 6.00 Build 0)  -->
<svg version="1.1" id="Layer_1" xmlns="http://www.w3.org/2000/svg" xmlns:xlink="http://www.w3.org/1999/xlink" x="0px" y="0px"
	 viewBox="0 0 423.9 54" style="enable-background:new 0 0 423.9 54;" xml:space="preserve">
<g>
	<path d="M27.2,38.2V27.3L19,12.4h3.8l3.6,7.1c1,2,1.8,3.5,2.6,5.3h0.1c0.7-1.7,1.6-3.4,2.6-5.3l3.7-7.1h3.8l-8.6,14.8v11H27.2z"/>
	<path d="M55.5,33.2c0,1.9,0,3.6,0.2,5.1h-3l-0.2-3h-0.1c-0.9,1.5-2.8,3.4-6.1,3.4c-2.9,0-6.4-1.6-6.4-8.1V19.7h3.4V30
		c0,3.5,1.1,5.9,4.1,5.9c2.3,0,3.8-1.6,4.4-3.1c0.2-0.5,0.3-1.1,0.3-1.7V19.7h3.4V33.2z"/>
	<path d="M61.2,12.4h3.3v23h11v2.8H61.2V12.4z"/>
	<path d="M82.9,14.5c0,1.1-0.8,2.1-2.1,2.1c-1.2,0-2-0.9-2-2.1c0-1.2,0.9-2.1,2.1-2.1C82.1,12.4,82.9,13.3,82.9,14.5z M79.1,38.2
		V19.7h3.4v18.5H79.1z"/>
	<path d="M87.3,36.2c0-1.4,1-2.4,2.3-2.4s2.3,1,2.3,2.4c0,1.4-0.9,2.4-2.3,2.4C88.2,38.6,87.3,37.6,87.3,36.2z"/>
	<path d="M96,24.7c0-1.9,0-3.5-0.2-5h3l0.2,3.1h0.1c0.9-1.8,3.1-3.5,6.1-3.5c2.6,0,6.5,1.5,6.5,7.9v11.1h-3.4V27.5
		c0-3-1.1-5.5-4.3-5.5c-2.2,0-3.9,1.6-4.5,3.4c-0.2,0.4-0.2,1-0.2,1.6v11.1H96V24.7z"/>
	<path d="M127.5,38.2l-0.3-2.3h-0.1c-1,1.5-3,2.8-5.7,2.8c-3.8,0-5.7-2.6-5.7-5.3c0-4.5,4-6.9,11.1-6.9v-0.4c0-1.5-0.4-4.3-4.2-4.3
		c-1.7,0-3.5,0.5-4.8,1.4l-0.8-2.2c1.5-1,3.8-1.6,6.1-1.6c5.7,0,7,3.9,7,7.6v6.9c0,1.6,0.1,3.2,0.3,4.4H127.5z M127,28.8
		c-3.7-0.1-7.8,0.6-7.8,4.2c0,2.2,1.5,3.2,3.2,3.2c2.4,0,3.9-1.5,4.5-3.1c0.1-0.3,0.2-0.7,0.2-1.1V28.8z"/>
	<path d="M135.7,24.7c0-1.9,0-3.5-0.2-5h3l0.2,3.1h0.1c0.9-1.8,3.1-3.5,6.1-3.5c2.6,0,6.5,1.5,6.5,7.9v11.1h-3.4V27.5
		c0-3-1.1-5.5-4.3-5.5c-2.2,0-3.9,1.6-4.5,3.4c-0.2,0.4-0.2,1-0.2,1.6v11.1h-3.4V24.7z"/>
	<path d="M173.7,28.8c0,6.9-4.7,9.8-9.2,9.8c-5,0-8.9-3.7-8.9-9.5c0-6.2,4.1-9.8,9.2-9.8C170.1,19.3,173.7,23.1,173.7,28.8z M159,29
		c0,4.1,2.3,7.1,5.6,7.1c3.2,0,5.6-3,5.6-7.2c0-3.1-1.6-7.1-5.5-7.1C160.7,21.8,159,25.5,159,29z"/>
	<path d="M195.2,40.7c-2.1,1.1-4.2,1.5-6.8,1.5c-6.3,0-11.6-4.6-11.6-11.9c0-7.9,5.5-14.7,14-14.7c6.7,0,11.1,4.7,11.1,11.1
		c0,5.7-3.2,9.1-6.8,9.1c-1.5,0-2.9-1-2.8-3.4h-0.2c-1.3,2.3-3.1,3.4-5.4,3.4c-2.2,0-4.1-1.8-4.1-4.8c0-4.7,3.8-9.1,9.1-9.1
		c1.6,0,3.1,0.3,4.1,0.8l-1.3,6.9c-0.6,2.9-0.1,4.2,1.1,4.3c2,0,4.1-2.6,4.1-7c0-5.5-3.3-9.5-9.3-9.5c-6.2,0-11.5,4.9-11.5,12.7
		c0,6.4,4.2,10.3,9.8,10.3c2.2,0,4.2-0.5,5.8-1.3L195.2,40.7z M193.1,24.1c-0.4-0.1-1-0.3-1.9-0.3c-3.4,0-6.1,3.2-6.1,6.9
		c0,1.7,0.8,2.9,2.5,2.9c2.2,0,4.2-2.8,4.7-5.2L193.1,24.1z"/>
	<path d="M222.9,28.8c0,6.9-4.7,9.8-9.2,9.8c-5,0-8.9-3.7-8.9-9.5c0-6.2,4.1-9.8,9.2-9.8C219.3,19.3,222.9,23.1,222.9,28.8z
		 M208.2,29c0,4.1,2.3,7.1,5.6,7.1c3.2,0,5.6-3,5.6-7.2c0-3.1-1.6-7.1-5.5-7.1C209.9,21.8,208.2,25.5,208.2,29z"/>
	<path d="M242.7,33.2c0,1.9,0,3.6,0.2,5.1h-3l-0.2-3h-0.1c-0.9,1.5-2.8,3.4-6.1,3.4c-2.9,0-6.4-1.6-6.4-8.1V19.7h3.4V30
		c0,3.5,1.1,5.9,4.1,5.9c2.3,0,3.8-1.6,4.4-3.1c0.2-0.5,0.3-1.1,0.3-1.7V19.7h3.4V33.2z"/>
	<path d="M252.3,14.4v5.3h4.8v2.6h-4.8v10c0,2.3,0.7,3.6,2.5,3.6c0.9,0,1.5-0.1,2-0.2l0.2,2.5c-0.7,0.3-1.7,0.5-3,0.5
		c-1.6,0-2.8-0.5-3.6-1.4c-1-1-1.3-2.6-1.3-4.8V22.3h-2.9v-2.6h2.9v-4.4L252.3,14.4z"/>
	<path d="M260.9,11.1h3.4v27.2h-3.4V11.1z"/>
	<path d="M286.7,28.8c0,6.9-4.7,9.8-9.2,9.8c-5,0-8.9-3.7-8.9-9.5c0-6.2,4.1-9.8,9.2-9.8C283.1,19.3,286.7,23.1,286.7,28.8z M272,29
		c0,4.1,2.3,7.1,5.6,7.1c3.2,0,5.6-3,5.6-7.2c0-3.1-1.6-7.1-5.5-7.1C273.7,21.8,272,25.5,272,29z"/>
	<path d="M307.7,28.8c0,6.9-4.7,9.8-9.2,9.8c-5,0-8.9-3.7-8.9-9.5c0-6.2,4.1-9.8,9.2-9.8C304.1,19.3,307.7,23.1,307.7,28.8z M293,29
		c0,4.1,2.3,7.1,5.6,7.1c3.2,0,5.6-3,5.6-7.2c0-3.1-1.6-7.1-5.5-7.1C294.7,21.8,293,25.5,293,29z"/>
	<path d="M315.3,28.2L315.3,28.2c0.5-0.7,1.2-1.5,1.7-2.1l5.4-6.4h4.1l-7.2,7.6l8.2,10.9h-4.1l-6.4-8.9l-1.7,1.9v7H312V11.1h3.3
		V28.2z"/>
	<path d="M329.6,36.2c0-1.4,1-2.4,2.3-2.4s2.3,1,2.3,2.4c0,1.4-0.9,2.4-2.3,2.4C330.6,38.6,329.6,37.6,329.6,36.2z"/>
	<path d="M351.6,37.5c-0.9,0.5-2.8,1.1-5.3,1.1c-5.6,0-9.2-3.8-9.2-9.5c0-5.7,3.9-9.8,10-9.8c2,0,3.8,0.5,4.7,1l-0.8,2.6
		c-0.8-0.5-2.1-0.9-3.9-0.9c-4.2,0-6.5,3.1-6.5,7c0,4.3,2.8,6.9,6.4,6.9c1.9,0,3.2-0.5,4.1-0.9L351.6,37.5z"/>
	<path d="M372,28.8c0,6.9-4.7,9.8-9.2,9.8c-5,0-8.9-3.7-8.9-9.5c0-6.2,4.1-9.8,9.2-9.8C368.4,19.3,372,23.1,372,28.8z M357.3,29
		c0,4.1,2.3,7.1,5.6,7.1c3.2,0,5.6-3,5.6-7.2c0-3.1-1.6-7.1-5.5-7.1C359.1,21.8,357.3,25.5,357.3,29z"/>
	<path d="M376.3,24.7c0-1.9,0-3.5-0.2-5h2.9l0.2,3h0.1c1-1.8,2.8-3.4,5.8-3.4c2.5,0,4.4,1.5,5.2,3.7h0.1c0.6-1,1.3-1.8,2.1-2.4
		c1.1-0.8,2.3-1.3,4.1-1.3c2.4,0,6.1,1.6,6.1,8v10.9h-3.3V27.7c0-3.6-1.3-5.7-4-5.7c-1.9,0-3.4,1.4-4,3.1c-0.2,0.5-0.3,1.1-0.3,1.7
		v11.4h-3.3V27.1c0-2.9-1.3-5.1-3.9-5.1c-2.1,0-3.6,1.7-4.2,3.4c-0.2,0.5-0.3,1.1-0.3,1.6v11.2h-3.3V24.7z"/>
</g>
</svg>
