<?xml version="1.0" encoding="utf-8"?>
<!-- Generator: Adobe Illustrator 24.1.1, SVG Export Plug-In . SVG Version: 6.00 Build 0)  -->
<svg version="1.1" id="Layer_1" xmlns="http://www.w3.org/2000/svg" xmlns:xlink="http://www.w3.org/1999/xlink" x="0px" y="0px"
	 viewBox="0 0 174.39 174.39" style="enable-background:new 0 0 174.39 174.39;" xml:space="preserve">
<style type="text/css">
	.st0{clip-path:url(#SVGID_2_);}
	.st1{fill:none;stroke:#000000;stroke-width:0.5;stroke-miterlimit:10;}
	.st2{fill:url(#SVGID_3_);stroke:#000000;stroke-miterlimit:10;}
	.st3{fill:url(#SVGID_4_);stroke:#000000;stroke-miterlimit:10;}
	.st4{font-family:'TimesNewRomanPS-BoldMT';}
	.st5{font-size:12px;}
	.st6{font-family:'TimesNewRomanPS-ItalicMT';}
	.st7{font-family:'TimesNewRomanPSMT';}
</style>
<g>
	<defs>
		<rect id="SVGID_1_" x="9.84" y="13.99" width="154.71" height="146.41"/>
	</defs>
	<clipPath id="SVGID_2_">
		<use xlink:href="#SVGID_1_"  style="overflow:visible;"/>
	</clipPath>
	<g class="st0">
		<line class="st1" x1="87.19" y1="9.71" x2="87.19" y2="61.33"/>
		<path class="st1" d="M109.64,9.71c0,0-22.44,42.45-22.44,51.61"/>
		<path class="st1" d="M156.87,9.71c0,0-42.45,14.7-69.67,51.61"/>
		<path class="st1" d="M165.07,35.81c0,0-47.46,1.88-77.87,25.52"/>
		<path class="st1" d="M114.22,87.24c0-4.03-0.87-18.73-27.03-25.91"/>
		<path class="st1" d="M98.41,87.24c0-4.03,1-11.96-11.22-25.91"/>
		<line class="st1" x1="87.17" y1="87.24" x2="87.19" y2="61.33"/>
		<g>
			<g>
				<path d="M87.17,23.79c0.54,1.41,1.46,3.17,2.42,4.25l-2.39-0.83l-2.37,0.89C85.78,26.99,86.66,25.22,87.17,23.79z"/>
			</g>
		</g>
		<g>
			<g>
				<line class="st1" x1="99.75" y1="29.3" x2="100.36" y2="28.05"/>
				<g>
					<path d="M101.69,25.34c-0.15,1.51-0.12,3.48,0.26,4.88l-1.76-1.82l-2.51-0.27C99.01,27.57,100.59,26.39,101.69,25.34z"/>
				</g>
			</g>
		</g>
		<g>
			<g>
				<line class="st1" x1="115.97" y1="32.6" x2="117.37" y2="31.56"/>
				<g>
					<path d="M119.78,29.75c-0.82,1.27-1.7,3.05-2,4.46l-0.73-2.42l-2.11-1.39C116.38,30.51,118.33,30.18,119.78,29.75z"/>
				</g>
			</g>
		</g>
		<g>
			<g>
				<path d="M136.77,39.76c-1.29,0.8-2.84,2.03-3.72,3.17l0.37-2.5l-1.31-2.16C133.37,38.99,135.27,39.52,136.77,39.76z"/>
			</g>
		</g>
		<g>
			<g>
				<path d="M135.82,62.45c-1.47-0.37-3.43-0.62-4.87-0.45l2.05-1.48l0.63-2.45C134,59.48,134.95,61.22,135.82,62.45z"/>
			</g>
		</g>
		<g>
			<g>
				<path d="M124.97,73.76c-1.31-0.76-3.13-1.55-4.55-1.78l2.38-0.85l1.29-2.18C124.04,70.4,124.47,72.33,124.97,73.76z"/>
			</g>
		</g>
		<g>
			<g>
				<path d="M113.58,82.11c-0.98-1.15-2.43-2.5-3.7-3.2l2.53-0.01l1.94-1.63C113.83,78.64,113.59,80.6,113.58,82.11z"/>
			</g>
		</g>
		<g>
			<g>
				<path d="M98.43,88.95c-0.53-1.42-1.43-3.18-2.38-4.27l2.38,0.86l2.38-0.86C99.86,85.77,98.96,87.53,98.43,88.95z"/>
			</g>
		</g>
		<g>
			<g>
				<path d="M87.17,88.95c-0.53-1.42-1.43-3.18-2.38-4.27l2.38,0.86l2.38-0.86C88.6,85.77,87.7,87.53,87.17,88.95z"/>
			</g>
		</g>
		<path class="st1" d="M64.75,9.71c0,0,22.44,42.45,22.44,51.61"/>
		<path class="st1" d="M17.52,9.71c0,0,42.45,14.7,69.67,51.61"/>
		<path class="st1" d="M9.32,35.81c0,0,47.46,1.88,77.87,25.52"/>
		<path class="st1" d="M60.16,87.24c0-4.03,0.87-18.73,27.03-25.91"/>
		<path class="st1" d="M75.97,87.24c0-4.03-1-11.96,11.22-25.91"/>
		<line class="st1" x1="87.21" y1="87.24" x2="87.19" y2="61.33"/>
		<g>
			<g>
				<line class="st1" x1="74.63" y1="29.3" x2="74.02" y2="28.05"/>
				<g>
					<path d="M72.7,25.34c1.1,1.04,2.68,2.23,4.01,2.8l-2.51,0.27l-1.76,1.82C72.81,28.83,72.85,26.85,72.7,25.34z"/>
				</g>
			</g>
		</g>
		<g>
			<g>
				<line class="st1" x1="58.42" y1="32.6" x2="57.02" y2="31.56"/>
				<g>
					<path d="M54.6,29.75c1.45,0.43,3.4,0.76,4.85,0.65l-2.11,1.39l-0.73,2.42C56.3,32.8,55.42,31.02,54.6,29.75z"/>
				</g>
			</g>
		</g>
		<g>
			<g>
				<path d="M37.62,39.76c1.5-0.24,3.4-0.77,4.66-1.49l-1.31,2.16l0.37,2.5C40.45,41.78,38.9,40.56,37.62,39.76z"/>
			</g>
		</g>
		<g>
			<g>
				<path d="M36.36,63c0.96-1.17,2.03-2.83,2.5-4.2l0.45,2.49l1.94,1.62C39.82,62.63,37.85,62.74,36.36,63z"/>
			</g>
		</g>
		<g>
			<g>
				<path d="M49.89,73.53c0.54-1.42,1.02-3.33,1.02-4.78l1.23,2.21l2.36,0.91C53.05,72.07,51.22,72.8,49.89,73.53z"/>
			</g>
		</g>
		<g>
			<g>
				<path d="M60.8,82.11c-0.01-1.51-0.24-3.48-0.76-4.83l1.94,1.63l2.53,0.01C63.23,79.62,61.78,80.96,60.8,82.11z"/>
			</g>
		</g>
		<g>
			<g>
				<path d="M75.95,88.95c-0.53-1.42-1.43-3.18-2.38-4.27l2.38,0.86l2.38-0.86C77.38,85.77,76.48,87.53,75.95,88.95z"/>
			</g>
		</g>
		<line class="st1" x1="87.19" y1="164.67" x2="87.19" y2="113.06"/>
		<path class="st1" d="M109.64,164.67c0,0-22.44-42.45-22.44-51.61"/>
		<path class="st1" d="M156.87,164.67c0,0-42.45-14.7-69.67-51.61"/>
		<path class="st1" d="M165.07,138.58c0,0-47.46-1.88-77.87-25.52"/>
		<path class="st1" d="M84.2,113.06c58.65,15.31,68.22-17.18,68.22-25.82s-9.56-41.22-68.22-25.91"/>
		<path class="st1" d="M87.19,113.06c37.32,0,42.5-17.27,42.5-25.82s-5.18-25.91-42.5-25.91"/>
		<path class="st1" d="M114.22,87.15c0,4.03-0.87,18.73-27.03,25.91"/>
		<path class="st1" d="M98.41,87.15c0,4.03,1,11.96-11.22,25.91"/>
		<line class="st1" x1="87.17" y1="87.15" x2="87.19" y2="113.06"/>
		<g>
			<g>
				<path d="M87.19,148.73c-0.54,1.41-1.46,3.17-2.42,4.25l2.39-0.83l2.37,0.89C88.58,151.93,87.7,150.16,87.19,148.73z"/>
			</g>
		</g>
		<g>
			<g>
				<line class="st1" x1="101.08" y1="147.8" x2="101.69" y2="149.04"/>
				<g>
					<path d="M99.75,145.09c0.15,1.51,0.12,3.48-0.26,4.88l1.76-1.82l2.51-0.27C102.43,147.32,100.85,146.13,99.75,145.09z"/>
				</g>
			</g>
		</g>
		<g>
			<g>
				<line class="st1" x1="118.38" y1="143.59" x2="119.78" y2="144.63"/>
				<g>
					<path d="M115.97,141.78c0.82,1.27,1.7,3.05,2,4.46l0.73-2.42l2.11-1.39C119.37,142.54,117.42,142.21,115.97,141.78z"/>
				</g>
			</g>
		</g>
		<g>
			<g>
				<path d="M135.5,134.37c1.29,0.8,2.84,2.03,3.72,3.17l-0.37-2.5l1.31-2.16C138.9,133.6,137,134.13,135.5,134.37z"/>
			</g>
		</g>
		<g>
			<g>
				<path d="M135.33,112.29c1.48-0.34,3.44-0.56,4.88-0.37l-2.03-1.51l-0.59-2.46C137.2,109.35,136.22,111.07,135.33,112.29z"/>
			</g>
		</g>
		<g>
			<g>
				<path d="M124.38,101.38c1.38-0.63,3.26-1.25,4.7-1.35l-2.29-1.07l-1.08-2.29C125.62,98.12,125.01,100,124.38,101.38z"/>
			</g>
		</g>
		<g>
			<g>
				<path d="M112.79,94.93c0.91-1.21,2.27-2.64,3.5-3.42l-2.52,0.15l-2.03-1.5C112.33,91.47,112.69,93.42,112.79,94.93z"/>
			</g>
		</g>
		<path class="st1" d="M64.75,164.67c0,0,22.44-42.45,22.44-51.61"/>
		<path class="st1" d="M17.52,164.67c0,0,42.45-14.7,69.67-51.61"/>
		<path class="st1" d="M9.32,138.58c0,0,47.46-1.88,77.87-25.52"/>
		<path class="st1" d="M90.18,113.06C31.53,128.37,21.96,98,21.96,87.24s9.56-41.22,68.22-25.91"/>
		<path class="st1" d="M87.19,113.06c-37.32,0-42.5-18.07-42.5-25.82s5.18-25.91,42.5-25.91"/>
		<path class="st1" d="M60.16,87.15c0,4.03,0.87,18.73,27.03,25.91"/>
		<path class="st1" d="M75.97,87.15c0,4.03-1,11.96,11.22,25.91"/>
		<line class="st1" x1="87.21" y1="87.15" x2="87.19" y2="113.06"/>
		<g>
			<g>
				<line class="st1" x1="73.31" y1="147.8" x2="72.7" y2="149.04"/>
				<g>
					<path d="M74.63,145.09c-1.1,1.04-2.68,2.23-4.01,2.8l2.51,0.27l1.76,1.82C74.51,148.57,74.48,146.59,74.63,145.09z"/>
				</g>
			</g>
		</g>
		<g>
			<g>
				<line class="st1" x1="56" y1="143.59" x2="54.6" y2="144.63"/>
				<g>
					<path d="M58.42,141.78c-1.45,0.43-3.4,0.76-4.85,0.65l2.11,1.39l0.73,2.42C56.72,144.83,57.6,143.05,58.42,141.78z"/>
				</g>
			</g>
		</g>
		<g>
			<g>
				<path d="M38.88,134.37c-1.5-0.24-3.4-0.77-4.66-1.49l1.31,2.16l-0.37,2.5C36.05,136.39,37.6,135.17,38.88,134.37z"/>
			</g>
		</g>
		<g>
			<g>
				<path d="M34.23,109.98c-0.8-1.28-1.65-3.07-1.93-4.49l-0.77,2.41l-2.13,1.36C30.84,109.17,32.78,109.53,34.23,109.98z"/>
			</g>
		</g>
		<g>
			<g>
				<path d="M50.5,101.61c-0.56-1.41-1.07-3.32-1.1-4.77l-1.19,2.23l-2.34,0.95C47.32,100.2,49.16,100.91,50.5,101.61z"/>
			</g>
		</g>
		<g>
			<g>
				<path d="M61.82,95.06c0.01-1.51,0.24-3.48,0.76-4.83l-1.94,1.63l-2.53,0.01C59.39,92.56,60.84,93.91,61.82,95.06z"/>
			</g>
		</g>
		<g>
			<g>
				<path d="M21.93,89.1c0.55-1.41,1.48-3.16,2.45-4.24l-2.39,0.82l-2.36-0.9C20.56,85.9,21.43,87.67,21.93,89.1z"/>
			</g>
		</g>
		<g>
			<g>
				<path d="M152.42,88.49c0.5-1.43,1.37-3.21,2.3-4.32l-2.36,0.9l-2.39-0.82C150.94,85.33,151.87,87.08,152.42,88.49z"/>
			</g>
		</g>
		<radialGradient id="SVGID_3_" cx="87.1927" cy="61.3297" r="9.1632" gradientUnits="userSpaceOnUse">
			<stop  offset="0" style="stop-color:#FFFFFF"/>
			<stop  offset="0.0412" style="stop-color:#FFEEEE"/>
			<stop  offset="0.1877" style="stop-color:#FDB6B6"/>
			<stop  offset="0.3236" style="stop-color:#FC8A8A"/>
			<stop  offset="0.4446" style="stop-color:#FB6A6A"/>
			<stop  offset="0.5463" style="stop-color:#FA5757"/>
			<stop  offset="0.6164" style="stop-color:#FA5050"/>
		</radialGradient>
		<circle class="st2" cx="87.19" cy="61.33" r="9.16"/>
		<radialGradient id="SVGID_4_" cx="87.1927" cy="113.1406" r="9.1632" gradientUnits="userSpaceOnUse">
			<stop  offset="0" style="stop-color:#FFFFFF"/>
			<stop  offset="0.0197" style="stop-color:#F4F9FF"/>
			<stop  offset="0.147" style="stop-color:#B0D7FF"/>
			<stop  offset="0.2677" style="stop-color:#77BBFF"/>
			<stop  offset="0.3782" style="stop-color:#4BA5FF"/>
			<stop  offset="0.4767" style="stop-color:#2B95FF"/>
			<stop  offset="0.5594" style="stop-color:#188BFF"/>
			<stop  offset="0.6164" style="stop-color:#1188FF"/>
		</radialGradient>
		<circle class="st3" cx="87.19" cy="113.14" r="9.16"/>
	</g>
</g>
<text transform="matrix(0.9418 0 0 0.9418 81.1152 63.8695)" class="st4 st5">+</text>
<text transform="matrix(1 0 0 1 87.5547 63.2401)" class="st6 st5">p</text>
<text transform="matrix(1.4509 0 0 1 81.7006 115.3143)" class="st7 st5">-</text>
<text transform="matrix(1 0 0 1 87.4985 115.0457)" class="st6 st5">p</text>
</svg>
